<?xml version="1.0" encoding="utf-8"?>
<!-- Generator: Adobe Illustrator 16.0.0, SVG Export Plug-In . SVG Version: 6.00 Build 0)  -->
<!DOCTYPE svg PUBLIC "-//W3C//DTD SVG 1.1//EN" "http://www.w3.org/Graphics/SVG/1.1/DTD/svg11.dtd">
<svg version="1.1" id="Layer_1" xmlns="http://www.w3.org/2000/svg" xmlns:xlink="http://www.w3.org/1999/xlink" x="0px" y="0px"
	 width="100px" height="100px" viewBox="0 0 100 100" enable-background="new 0 0 100 100" xml:space="preserve">
<path stroke="#000000" stroke-miterlimit="10" d="M81.104,87.269c0,6.341-5.14,11.481-11.481,11.481H30.377
	c-6.34,0-11.48-5.141-11.48-11.481V27.602c0-6.34,5.141-11.48,11.48-11.48h39.245c6.342,0,11.481,5.14,11.481,11.48V87.269z"/>
<path stroke="#000000" stroke-miterlimit="10" d="M61.591,46.966c0,6.402-5.191,11.591-11.591,11.591l0,0
	c-6.401,0-11.591-5.189-11.591-11.591V12.379c0-6.402,5.189-11.592,11.591-11.592l0,0c6.399,0,11.591,5.19,11.591,11.592V46.966z"/>
<circle fill="#FFFFFF" stroke="#000000" stroke-miterlimit="10" cx="50" cy="8.367" r="3.829"/>
<path fill="#FFFFFF" stroke="#000000" stroke-miterlimit="10" d="M76.023,83.609c0,5.574-4.299,10.091-9.604,10.091H33.583
	c-5.305,0-9.606-4.517-9.606-10.091V31.195c0-5.571,4.302-10.086,9.606-10.086H66.42c5.305,0,9.604,4.515,9.604,10.086V83.609z"/>
<path d="M68.885,34.067c0,2.217-1.981,4.016-4.423,4.016H35.538c-2.442,0-4.423-1.799-4.423-4.016l0,0
	c0-2.218,1.98-4.016,4.423-4.016h28.924C66.903,30.051,68.885,31.849,68.885,34.067L68.885,34.067z"/>
<path d="M68.885,50.146c0,2.219-1.981,4.014-4.423,4.014H35.538c-2.442,0-4.423-1.795-4.423-4.014l0,0
	c0-2.218,1.98-4.016,4.423-4.016h28.924C66.903,46.131,68.885,47.929,68.885,50.146L68.885,50.146z"/>
<path d="M68.885,65.755c0,2.218-1.981,4.016-4.423,4.016H35.538c-2.442,0-4.423-1.798-4.423-4.016l0,0
	c0-2.219,1.98-4.016,4.423-4.016h28.924C66.903,61.739,68.885,63.536,68.885,65.755L68.885,65.755z"/>
<path d="M68.885,81.896c0,2.22-1.981,4.013-4.423,4.013H35.538c-2.442,0-4.423-1.793-4.423-4.013l0,0
	c0-2.218,1.98-4.016,4.423-4.016h28.924C66.903,77.88,68.885,79.678,68.885,81.896L68.885,81.896z"/>
<path d="M72.256,20.62c0,2.264-2.684,4.1-5.99,4.1H33.734c-3.309,0-5.99-1.836-5.99-4.1v-4.032c0-2.263,2.682-4.099,5.99-4.099
	h32.531c3.307,0,5.99,1.836,5.99,4.099V20.62z"/>
</svg>
