<?xml version="1.0" encoding="utf-8"?>
<!-- Generator: Adobe Illustrator 16.0.0, SVG Export Plug-In . SVG Version: 6.00 Build 0)  -->
<!DOCTYPE svg PUBLIC "-//W3C//DTD SVG 1.1//EN" "http://www.w3.org/Graphics/SVG/1.1/DTD/svg11.dtd">
<svg version="1.1" id="Layer_1" xmlns="http://www.w3.org/2000/svg" xmlns:xlink="http://www.w3.org/1999/xlink" x="0px" y="0px"
	 width="100px" height="100px" viewBox="0 0 100 100" enable-background="new 0 0 100 100" xml:space="preserve">
<path fill="#FFFFFF" stroke="#FFFFFF" stroke-miterlimit="10" d="M81.075,87.177c0,6.335-5.135,11.471-11.471,11.471h-39.21
	c-6.335,0-11.47-5.136-11.47-11.471V27.563c0-6.335,5.135-11.47,11.47-11.47h39.21c6.336,0,11.471,5.135,11.471,11.47V87.177z"/>
<path fill="#FFFFFF" stroke="#FFFFFF" stroke-miterlimit="10" d="M61.581,46.91c0,6.396-5.187,11.581-11.581,11.581l0,0
	c-6.396,0-11.581-5.185-11.581-11.581V12.354c0-6.395,5.186-11.581,11.581-11.581l0,0c6.395,0,11.581,5.186,11.581,11.581V46.91z"/>
<circle fill="#5884AD" stroke="#FFFFFF" stroke-miterlimit="10" cx="50" cy="8.346" r="3.825"/>
<path fill="#5884AD" stroke="#FFFFFF" stroke-miterlimit="10" d="M76.001,83.522c0,5.568-4.296,10.079-9.596,10.079H33.598
	c-5.3,0-9.599-4.511-9.599-10.079v-52.37c0-5.565,4.299-10.077,9.599-10.077h32.808c5.3,0,9.596,4.511,9.596,10.077V83.522z"/>
<path fill="#FFFFFF" d="M68.867,34.023c0,2.215-1.978,4.012-4.419,4.012H35.551c-2.44,0-4.418-1.796-4.418-4.012l0,0
	c0-2.216,1.978-4.013,4.418-4.013h28.897C66.89,30.01,68.867,31.807,68.867,34.023L68.867,34.023z"/>
<path fill="#FFFFFF" d="M68.867,50.088c0,2.216-1.978,4.011-4.419,4.011H35.551c-2.44,0-4.418-1.795-4.418-4.011l0,0
	c0-2.216,1.978-4.012,4.418-4.012h28.897C66.89,46.076,68.867,47.872,68.867,50.088L68.867,50.088z"/>
<path fill="#FFFFFF" d="M68.867,65.682c0,2.217-1.978,4.013-4.419,4.013H35.551c-2.44,0-4.418-1.796-4.418-4.013l0,0
	c0-2.218,1.978-4.012,4.418-4.012h28.897C66.89,61.67,68.867,63.464,68.867,65.682L68.867,65.682z"/>
<path fill="#FFFFFF" d="M68.867,81.809c0,2.217-1.978,4.01-4.419,4.01H35.551c-2.44,0-4.418-1.793-4.418-4.01l0,0
	c0-2.217,1.978-4.013,4.418-4.013h28.897C66.89,77.796,68.867,79.592,68.867,81.809L68.867,81.809z"/>
<path fill="#FFFFFF" d="M72.236,20.586c0,2.263-2.684,4.098-5.986,4.098H33.749c-3.306,0-5.984-1.834-5.984-4.098V16.56
	c0-2.263,2.678-4.097,5.984-4.097H66.25c3.303,0,5.986,1.834,5.986,4.097V20.586z"/>
</svg>
